# xmcd
#
# Track frame offsets:
#	150
#	16871
#	31968
#	46667
#	62806
#	81375
#	97916
#	120724
#	133797
#	148492
#
# Disc length: 2166 seconds
#
# Revision: 0
# Processed by: cddbd v1.5.2PL0 Copyright (c) Steve Scherf et al.
# Submitted via: EasyCDDAExtractor 16.0.6.1
#
DISCID=8608740a
DTITLE=Dinah Washington - JB-257 The Bessie Smith Songbook
DYEAR=1958
DGENRE=Blues
TTITLE0=After You've Gone
TTITLE1=Send Me to the 'Lectric Chair
TTITLE2=Jailhouse Blues
TTITLE3=Trombone Butter
TTITLE4=You've Been a Good Ole Wagon
TTITLE5=Careless Love
TTITLE6=Back Water Blues
TTITLE7=If I Could Be With You One Hour Tonight
TTITLE8=Me and My Gin
TTITLE9=Fine Fat Daddy
EXTD=
EXTT0=
EXTT1=
EXTT2=
EXTT3=
EXTT4=
EXTT5=
EXTT6=
EXTT7=
EXTT8=
EXTT9=
PLAYORDER=
